<mxfile host="Electron" modified="2024-01-02T19:00:12.034Z" agent="Mozilla/5.0 (Windows NT 10.0; Win64; x64) AppleWebKit/537.36 (KHTML, like Gecko) draw.io/22.1.16 Chrome/120.0.6099.109 Electron/28.1.0 Safari/537.36" etag="OlJdOpxeEXDC6VtY3uf4" version="22.1.16" type="device">
  <diagram name="Page-1" id="QsuHx_mOJW3AivcxftBQ">
    <mxGraphModel dx="1635" dy="740" grid="0" gridSize="10" guides="1" tooltips="1" connect="1" arrows="1" fold="1" page="0" pageScale="1" pageWidth="850" pageHeight="1100" math="0" shadow="0">
      <root>
        <mxCell id="0" />
        <mxCell id="1" parent="0" />
        <mxCell id="k-Yjr3dnhK5efeG5fIm8-1" value="Student" style="swimlane;fontStyle=1;align=center;verticalAlign=top;childLayout=stackLayout;horizontal=1;startSize=25.774999618530273;horizontalStack=0;resizeParent=1;resizeParentMax=0;resizeLast=0;collapsible=0;marginBottom=0;" vertex="1" parent="1">
          <mxGeometry x="461" y="31" width="197" height="137.77499961853027" as="geometry" />
        </mxCell>
        <mxCell id="k-Yjr3dnhK5efeG5fIm8-2" value="- studentID: int" style="text;strokeColor=none;fillColor=none;align=left;verticalAlign=top;spacingLeft=4;spacingRight=4;overflow=hidden;rotatable=0;points=[[0,0.5],[1,0.5]];portConstraint=eastwest;" vertex="1" parent="k-Yjr3dnhK5efeG5fIm8-1">
          <mxGeometry y="25.774999618530273" width="197" height="26" as="geometry" />
        </mxCell>
        <mxCell id="k-Yjr3dnhK5efeG5fIm8-3" value="- name: string" style="text;strokeColor=none;fillColor=none;align=left;verticalAlign=top;spacingLeft=4;spacingRight=4;overflow=hidden;rotatable=0;points=[[0,0.5],[1,0.5]];portConstraint=eastwest;" vertex="1" parent="k-Yjr3dnhK5efeG5fIm8-1">
          <mxGeometry y="51.77499961853027" width="197" height="26" as="geometry" />
        </mxCell>
        <mxCell id="k-Yjr3dnhK5efeG5fIm8-4" value="- gender: string" style="text;strokeColor=none;fillColor=none;align=left;verticalAlign=top;spacingLeft=4;spacingRight=4;overflow=hidden;rotatable=0;points=[[0,0.5],[1,0.5]];portConstraint=eastwest;" vertex="1" parent="k-Yjr3dnhK5efeG5fIm8-1">
          <mxGeometry y="77.77499961853027" width="197" height="26" as="geometry" />
        </mxCell>
        <mxCell id="k-Yjr3dnhK5efeG5fIm8-5" value="- dateOfBirth: date" style="text;strokeColor=none;fillColor=none;align=left;verticalAlign=top;spacingLeft=4;spacingRight=4;overflow=hidden;rotatable=0;points=[[0,0.5],[1,0.5]];portConstraint=eastwest;" vertex="1" parent="k-Yjr3dnhK5efeG5fIm8-1">
          <mxGeometry y="103.77499961853027" width="197" height="26" as="geometry" />
        </mxCell>
        <mxCell id="k-Yjr3dnhK5efeG5fIm8-8" style="line;strokeWidth=1;fillColor=none;align=left;verticalAlign=middle;spacingTop=-1;spacingLeft=3;spacingRight=3;rotatable=0;labelPosition=right;points=[];portConstraint=eastwest;strokeColor=inherit;" vertex="1" parent="k-Yjr3dnhK5efeG5fIm8-1">
          <mxGeometry y="129.77499961853027" width="197" height="8" as="geometry" />
        </mxCell>
        <mxCell id="k-Yjr3dnhK5efeG5fIm8-10" value="Grade" style="swimlane;fontStyle=1;align=center;verticalAlign=top;childLayout=stackLayout;horizontal=1;startSize=26.25714329310826;horizontalStack=0;resizeParent=1;resizeParentMax=0;resizeLast=0;collapsible=0;marginBottom=0;" vertex="1" parent="1">
          <mxGeometry x="-27" y="3.76" width="251" height="192.25714329310824" as="geometry" />
        </mxCell>
        <mxCell id="k-Yjr3dnhK5efeG5fIm8-11" value="- studentID: int" style="text;strokeColor=none;fillColor=none;align=left;verticalAlign=top;spacingLeft=4;spacingRight=4;overflow=hidden;rotatable=0;points=[[0,0.5],[1,0.5]];portConstraint=eastwest;" vertex="1" parent="k-Yjr3dnhK5efeG5fIm8-10">
          <mxGeometry y="26.25714329310826" width="251" height="26" as="geometry" />
        </mxCell>
        <mxCell id="k-Yjr3dnhK5efeG5fIm8-12" value="- subjectID: int" style="text;strokeColor=none;fillColor=none;align=left;verticalAlign=top;spacingLeft=4;spacingRight=4;overflow=hidden;rotatable=0;points=[[0,0.5],[1,0.5]];portConstraint=eastwest;" vertex="1" parent="k-Yjr3dnhK5efeG5fIm8-10">
          <mxGeometry y="52.25714329310826" width="251" height="26" as="geometry" />
        </mxCell>
        <mxCell id="k-Yjr3dnhK5efeG5fIm8-78" value="- teache: string" style="text;strokeColor=none;fillColor=none;align=left;verticalAlign=top;spacingLeft=4;spacingRight=4;overflow=hidden;rotatable=0;points=[[0,0.5],[1,0.5]];portConstraint=eastwest;" vertex="1" parent="k-Yjr3dnhK5efeG5fIm8-10">
          <mxGeometry y="78.25714329310826" width="251" height="26" as="geometry" />
        </mxCell>
        <mxCell id="k-Yjr3dnhK5efeG5fIm8-13" value="- examType: enum(final, home, evaluation ...)" style="text;strokeColor=none;fillColor=none;align=left;verticalAlign=top;spacingLeft=4;spacingRight=4;overflow=hidden;rotatable=0;points=[[0,0.5],[1,0.5]];portConstraint=eastwest;" vertex="1" parent="k-Yjr3dnhK5efeG5fIm8-10">
          <mxGeometry y="104.25714329310826" width="251" height="26" as="geometry" />
        </mxCell>
        <mxCell id="k-Yjr3dnhK5efeG5fIm8-14" value="- grade: float" style="text;strokeColor=none;fillColor=none;align=left;verticalAlign=top;spacingLeft=4;spacingRight=4;overflow=hidden;rotatable=0;points=[[0,0.5],[1,0.5]];portConstraint=eastwest;" vertex="1" parent="k-Yjr3dnhK5efeG5fIm8-10">
          <mxGeometry y="130.25714329310824" width="251" height="26" as="geometry" />
        </mxCell>
        <mxCell id="k-Yjr3dnhK5efeG5fIm8-98" value="- date : date" style="text;strokeColor=none;fillColor=none;align=left;verticalAlign=top;spacingLeft=4;spacingRight=4;overflow=hidden;rotatable=0;points=[[0,0.5],[1,0.5]];portConstraint=eastwest;" vertex="1" parent="k-Yjr3dnhK5efeG5fIm8-10">
          <mxGeometry y="156.25714329310824" width="251" height="28" as="geometry" />
        </mxCell>
        <mxCell id="k-Yjr3dnhK5efeG5fIm8-16" style="line;strokeWidth=1;fillColor=none;align=left;verticalAlign=middle;spacingTop=-1;spacingLeft=3;spacingRight=3;rotatable=0;labelPosition=right;points=[];portConstraint=eastwest;strokeColor=inherit;" vertex="1" parent="k-Yjr3dnhK5efeG5fIm8-10">
          <mxGeometry y="184.25714329310824" width="251" height="8" as="geometry" />
        </mxCell>
        <mxCell id="k-Yjr3dnhK5efeG5fIm8-18" value="Attendance" style="swimlane;fontStyle=1;align=center;verticalAlign=top;childLayout=stackLayout;horizontal=1;startSize=27.8;horizontalStack=0;resizeParent=1;resizeParentMax=0;resizeLast=0;collapsible=0;marginBottom=0;" vertex="1" parent="1">
          <mxGeometry x="437" y="533.77" width="245" height="147.8" as="geometry" />
        </mxCell>
        <mxCell id="k-Yjr3dnhK5efeG5fIm8-19" value="- studentID: int" style="text;strokeColor=none;fillColor=none;align=left;verticalAlign=top;spacingLeft=4;spacingRight=4;overflow=hidden;rotatable=0;points=[[0,0.5],[1,0.5]];portConstraint=eastwest;" vertex="1" parent="k-Yjr3dnhK5efeG5fIm8-18">
          <mxGeometry y="27.8" width="245" height="28" as="geometry" />
        </mxCell>
        <mxCell id="k-Yjr3dnhK5efeG5fIm8-20" value="- absent_or_late: enum(abs,late)" style="text;strokeColor=none;fillColor=none;align=left;verticalAlign=top;spacingLeft=4;spacingRight=4;overflow=hidden;rotatable=0;points=[[0,0.5],[1,0.5]];portConstraint=eastwest;" vertex="1" parent="k-Yjr3dnhK5efeG5fIm8-18">
          <mxGeometry y="55.8" width="245" height="28" as="geometry" />
        </mxCell>
        <mxCell id="k-Yjr3dnhK5efeG5fIm8-21" value="- duration: time(HH:mm)" style="text;strokeColor=none;fillColor=none;align=left;verticalAlign=top;spacingLeft=4;spacingRight=4;overflow=hidden;rotatable=0;points=[[0,0.5],[1,0.5]];portConstraint=eastwest;" vertex="1" parent="k-Yjr3dnhK5efeG5fIm8-18">
          <mxGeometry y="83.8" width="245" height="28" as="geometry" />
        </mxCell>
        <mxCell id="k-Yjr3dnhK5efeG5fIm8-97" value="- date : date" style="text;strokeColor=none;fillColor=none;align=left;verticalAlign=top;spacingLeft=4;spacingRight=4;overflow=hidden;rotatable=0;points=[[0,0.5],[1,0.5]];portConstraint=eastwest;" vertex="1" parent="k-Yjr3dnhK5efeG5fIm8-18">
          <mxGeometry y="111.8" width="245" height="28" as="geometry" />
        </mxCell>
        <mxCell id="k-Yjr3dnhK5efeG5fIm8-22" style="line;strokeWidth=1;fillColor=none;align=left;verticalAlign=middle;spacingTop=-1;spacingLeft=3;spacingRight=3;rotatable=0;labelPosition=right;points=[];portConstraint=eastwest;strokeColor=inherit;" vertex="1" parent="k-Yjr3dnhK5efeG5fIm8-18">
          <mxGeometry y="139.8" width="245" height="8" as="geometry" />
        </mxCell>
        <mxCell id="k-Yjr3dnhK5efeG5fIm8-24" value="ActivityIndicator" style="swimlane;fontStyle=1;align=center;verticalAlign=top;childLayout=stackLayout;horizontal=1;startSize=26.899998982747395;horizontalStack=0;resizeParent=1;resizeParentMax=0;resizeLast=0;collapsible=0;marginBottom=0;" vertex="1" parent="1">
          <mxGeometry x="212" y="272" width="218" height="168.89999898274738" as="geometry" />
        </mxCell>
        <mxCell id="k-Yjr3dnhK5efeG5fIm8-25" value="- studentID: int" style="text;strokeColor=none;fillColor=none;align=left;verticalAlign=top;spacingLeft=4;spacingRight=4;overflow=hidden;rotatable=0;points=[[0,0.5],[1,0.5]];portConstraint=eastwest;" vertex="1" parent="k-Yjr3dnhK5efeG5fIm8-24">
          <mxGeometry y="26.899998982747395" width="218" height="27" as="geometry" />
        </mxCell>
        <mxCell id="k-Yjr3dnhK5efeG5fIm8-110" value="- subjectID: int" style="text;strokeColor=none;fillColor=none;align=left;verticalAlign=top;spacingLeft=4;spacingRight=4;overflow=hidden;rotatable=0;points=[[0,0.5],[1,0.5]];portConstraint=eastwest;" vertex="1" parent="k-Yjr3dnhK5efeG5fIm8-24">
          <mxGeometry y="53.89999898274739" width="218" height="26" as="geometry" />
        </mxCell>
        <mxCell id="k-Yjr3dnhK5efeG5fIm8-26" value="- activityType: string" style="text;strokeColor=none;fillColor=none;align=left;verticalAlign=top;spacingLeft=4;spacingRight=4;overflow=hidden;rotatable=0;points=[[0,0.5],[1,0.5]];portConstraint=eastwest;" vertex="1" parent="k-Yjr3dnhK5efeG5fIm8-24">
          <mxGeometry y="79.89999898274739" width="218" height="27" as="geometry" />
        </mxCell>
        <mxCell id="k-Yjr3dnhK5efeG5fIm8-27" value="- activityDate: date" style="text;strokeColor=none;fillColor=none;align=left;verticalAlign=top;spacingLeft=4;spacingRight=4;overflow=hidden;rotatable=0;points=[[0,0.5],[1,0.5]];portConstraint=eastwest;" vertex="1" parent="k-Yjr3dnhK5efeG5fIm8-24">
          <mxGeometry y="106.89999898274739" width="218" height="27" as="geometry" />
        </mxCell>
        <mxCell id="k-Yjr3dnhK5efeG5fIm8-28" value="- indicatorValue: float" style="text;strokeColor=none;fillColor=none;align=left;verticalAlign=top;spacingLeft=4;spacingRight=4;overflow=hidden;rotatable=0;points=[[0,0.5],[1,0.5]];portConstraint=eastwest;" vertex="1" parent="k-Yjr3dnhK5efeG5fIm8-24">
          <mxGeometry y="133.89999898274738" width="218" height="27" as="geometry" />
        </mxCell>
        <mxCell id="k-Yjr3dnhK5efeG5fIm8-29" style="line;strokeWidth=1;fillColor=none;align=left;verticalAlign=middle;spacingTop=-1;spacingLeft=3;spacingRight=3;rotatable=0;labelPosition=right;points=[];portConstraint=eastwest;strokeColor=inherit;" vertex="1" parent="k-Yjr3dnhK5efeG5fIm8-24">
          <mxGeometry y="160.89999898274738" width="218" height="8" as="geometry" />
        </mxCell>
        <mxCell id="k-Yjr3dnhK5efeG5fIm8-45" value="has" style="startArrow=none;endArrow=none;rounded=0;" edge="1" parent="1" source="k-Yjr3dnhK5efeG5fIm8-1" target="k-Yjr3dnhK5efeG5fIm8-10">
          <mxGeometry relative="1" as="geometry" />
        </mxCell>
        <mxCell id="k-Yjr3dnhK5efeG5fIm8-46" value="1" style="edgeLabel;resizable=0;labelBackgroundColor=none;fontSize=12;align=right;verticalAlign=top;" vertex="1" parent="k-Yjr3dnhK5efeG5fIm8-45">
          <mxGeometry x="-1" relative="1" as="geometry" />
        </mxCell>
        <mxCell id="k-Yjr3dnhK5efeG5fIm8-47" value="0..*" style="edgeLabel;resizable=0;labelBackgroundColor=none;fontSize=12;align=left;verticalAlign=bottom;" vertex="1" parent="k-Yjr3dnhK5efeG5fIm8-45">
          <mxGeometry x="1" relative="1" as="geometry" />
        </mxCell>
        <mxCell id="k-Yjr3dnhK5efeG5fIm8-48" value="has" style="startArrow=none;endArrow=none;rounded=0;" edge="1" parent="1" source="k-Yjr3dnhK5efeG5fIm8-1" target="k-Yjr3dnhK5efeG5fIm8-18">
          <mxGeometry relative="1" as="geometry" />
        </mxCell>
        <mxCell id="k-Yjr3dnhK5efeG5fIm8-49" value="1" style="edgeLabel;resizable=0;labelBackgroundColor=none;fontSize=12;align=right;verticalAlign=top;" vertex="1" parent="k-Yjr3dnhK5efeG5fIm8-48">
          <mxGeometry x="-1" relative="1" as="geometry" />
        </mxCell>
        <mxCell id="k-Yjr3dnhK5efeG5fIm8-50" value="0..*" style="edgeLabel;resizable=0;labelBackgroundColor=none;fontSize=12;align=left;verticalAlign=bottom;" vertex="1" parent="k-Yjr3dnhK5efeG5fIm8-48">
          <mxGeometry x="1" relative="1" as="geometry" />
        </mxCell>
        <mxCell id="k-Yjr3dnhK5efeG5fIm8-51" value="has" style="startArrow=none;endArrow=none;rounded=0;" edge="1" parent="1" source="k-Yjr3dnhK5efeG5fIm8-1" target="k-Yjr3dnhK5efeG5fIm8-24">
          <mxGeometry relative="1" as="geometry" />
        </mxCell>
        <mxCell id="k-Yjr3dnhK5efeG5fIm8-52" value="1" style="edgeLabel;resizable=0;labelBackgroundColor=none;fontSize=12;align=right;verticalAlign=top;" vertex="1" parent="k-Yjr3dnhK5efeG5fIm8-51">
          <mxGeometry x="-1" relative="1" as="geometry">
            <mxPoint x="12" y="-4" as="offset" />
          </mxGeometry>
        </mxCell>
        <mxCell id="k-Yjr3dnhK5efeG5fIm8-53" value="0..*" style="edgeLabel;resizable=0;labelBackgroundColor=none;fontSize=12;align=left;verticalAlign=bottom;" vertex="1" parent="k-Yjr3dnhK5efeG5fIm8-51">
          <mxGeometry x="1" relative="1" as="geometry">
            <mxPoint x="-23" y="-1" as="offset" />
          </mxGeometry>
        </mxCell>
        <mxCell id="k-Yjr3dnhK5efeG5fIm8-94" value="has" style="startArrow=none;endArrow=none;rounded=0;" edge="1" parent="1" source="k-Yjr3dnhK5efeG5fIm8-18" target="k-Yjr3dnhK5efeG5fIm8-99">
          <mxGeometry relative="1" as="geometry">
            <mxPoint x="560" y="391" as="sourcePoint" />
            <mxPoint x="484" y="403" as="targetPoint" />
          </mxGeometry>
        </mxCell>
        <mxCell id="k-Yjr3dnhK5efeG5fIm8-95" value="1" style="edgeLabel;resizable=0;labelBackgroundColor=none;fontSize=12;align=right;verticalAlign=top;" vertex="1" parent="k-Yjr3dnhK5efeG5fIm8-94">
          <mxGeometry x="-1" relative="1" as="geometry" />
        </mxCell>
        <mxCell id="k-Yjr3dnhK5efeG5fIm8-96" value="1" style="edgeLabel;resizable=0;labelBackgroundColor=none;fontSize=12;align=left;verticalAlign=bottom;" vertex="1" parent="k-Yjr3dnhK5efeG5fIm8-94">
          <mxGeometry x="1" relative="1" as="geometry" />
        </mxCell>
        <mxCell id="k-Yjr3dnhK5efeG5fIm8-99" value="Subject" style="swimlane;fontStyle=1;align=center;verticalAlign=top;childLayout=stackLayout;horizontal=1;startSize=26.25714329310826;horizontalStack=0;resizeParent=1;resizeParentMax=0;resizeLast=0;collapsible=0;marginBottom=0;" vertex="1" parent="1">
          <mxGeometry x="-2" y="564.54" width="201" height="86.25714329310826" as="geometry" />
        </mxCell>
        <mxCell id="k-Yjr3dnhK5efeG5fIm8-102" value="- subjectID: int" style="text;strokeColor=none;fillColor=none;align=left;verticalAlign=top;spacingLeft=4;spacingRight=4;overflow=hidden;rotatable=0;points=[[0,0.5],[1,0.5]];portConstraint=eastwest;" vertex="1" parent="k-Yjr3dnhK5efeG5fIm8-99">
          <mxGeometry y="26.25714329310826" width="201" height="26" as="geometry" />
        </mxCell>
        <mxCell id="k-Yjr3dnhK5efeG5fIm8-103" value="- subject: string" style="text;strokeColor=none;fillColor=none;align=left;verticalAlign=top;spacingLeft=4;spacingRight=4;overflow=hidden;rotatable=0;points=[[0,0.5],[1,0.5]];portConstraint=eastwest;" vertex="1" parent="k-Yjr3dnhK5efeG5fIm8-99">
          <mxGeometry y="52.25714329310826" width="201" height="26" as="geometry" />
        </mxCell>
        <mxCell id="k-Yjr3dnhK5efeG5fIm8-106" style="line;strokeWidth=1;fillColor=none;align=left;verticalAlign=middle;spacingTop=-1;spacingLeft=3;spacingRight=3;rotatable=0;labelPosition=right;points=[];portConstraint=eastwest;strokeColor=inherit;" vertex="1" parent="k-Yjr3dnhK5efeG5fIm8-99">
          <mxGeometry y="78.25714329310826" width="201" height="8" as="geometry" />
        </mxCell>
        <mxCell id="k-Yjr3dnhK5efeG5fIm8-107" value="has" style="startArrow=none;endArrow=none;rounded=0;" edge="1" parent="1" source="k-Yjr3dnhK5efeG5fIm8-99" target="k-Yjr3dnhK5efeG5fIm8-10">
          <mxGeometry relative="1" as="geometry">
            <mxPoint x="587" y="141" as="sourcePoint" />
            <mxPoint x="337" y="148" as="targetPoint" />
          </mxGeometry>
        </mxCell>
        <mxCell id="k-Yjr3dnhK5efeG5fIm8-108" value="1" style="edgeLabel;resizable=0;labelBackgroundColor=none;fontSize=12;align=right;verticalAlign=top;" vertex="1" parent="k-Yjr3dnhK5efeG5fIm8-107">
          <mxGeometry x="-1" relative="1" as="geometry">
            <mxPoint x="17" y="-25" as="offset" />
          </mxGeometry>
        </mxCell>
        <mxCell id="k-Yjr3dnhK5efeG5fIm8-109" value="0..*" style="edgeLabel;resizable=0;labelBackgroundColor=none;fontSize=12;align=left;verticalAlign=bottom;" vertex="1" parent="k-Yjr3dnhK5efeG5fIm8-107">
          <mxGeometry x="1" relative="1" as="geometry">
            <mxPoint x="-24" y="17" as="offset" />
          </mxGeometry>
        </mxCell>
        <mxCell id="k-Yjr3dnhK5efeG5fIm8-111" value="has" style="startArrow=none;endArrow=none;rounded=0;" edge="1" parent="1" source="k-Yjr3dnhK5efeG5fIm8-24" target="k-Yjr3dnhK5efeG5fIm8-99">
          <mxGeometry relative="1" as="geometry">
            <mxPoint x="454" y="595" as="sourcePoint" />
            <mxPoint x="209" y="611" as="targetPoint" />
          </mxGeometry>
        </mxCell>
        <mxCell id="k-Yjr3dnhK5efeG5fIm8-112" value="1" style="edgeLabel;resizable=0;labelBackgroundColor=none;fontSize=12;align=right;verticalAlign=top;" vertex="1" parent="k-Yjr3dnhK5efeG5fIm8-111">
          <mxGeometry x="-1" relative="1" as="geometry" />
        </mxCell>
        <mxCell id="k-Yjr3dnhK5efeG5fIm8-113" value="1" style="edgeLabel;resizable=0;labelBackgroundColor=none;fontSize=12;align=left;verticalAlign=bottom;" vertex="1" parent="k-Yjr3dnhK5efeG5fIm8-111">
          <mxGeometry x="1" relative="1" as="geometry" />
        </mxCell>
      </root>
    </mxGraphModel>
  </diagram>
</mxfile>
